<svg xmlns="http://www.w3.org/2000/svg" width="20" height="20" viewBox="0 0 20 20">
  <path d="M15.083,15.965 C14.595,16.173 14.071,16.29 13.54,16.31 C12.585,16.38 11.754,15.669 11.684,14.724 C11.674,14.596 11.679,14.467 11.698,14.34 L11.698,8.115 L15.542,8.115 L15.542,5.087 L11.707,5.087 L11.707,0 L8.904,0 C8.827,0.008 8.768,0.072 8.766,0.15 C8.667,2.515 7.201,4.612 5,5.533 L5,8.115 L6.937,8.115 L6.937,14.648 C6.903,17.569 9.266,19.966 12.215,19.999 C12.372,20.001 12.529,19.996 12.687,19.985 C14.094,19.96 15.655,19.349 16,18.814 L15.083,15.963"/>
</svg>
