<svg xmlns="http://www.w3.org/2000/svg" width="20" height="20" viewBox="0 0 20 20">
  <path d="M2.3716,5.2642 C2.3966,5.0162 2.3026,4.7722 2.1196,4.6052 L0.2516,2.3392 L0.2516,2.0002 L6.0506,2.0002 L10.5326,11.9052 L14.4726,2.0002 L19.9996,2.0002 L19.9996,2.3392 L18.4036,3.8812 C18.2656,3.9872 18.1976,4.1602 18.2256,4.3322 L18.2256,15.6672 C18.1976,15.8392 18.2656,16.0132 18.4036,16.1192 L19.9626,17.6612 L19.9626,18.0002 L12.1196,18.0002 L12.1196,17.6612 L13.7346,16.0812 C13.8936,15.9212 13.8936,15.8742 13.8936,15.6302 L13.8936,6.4682 L9.4026,17.9622 L8.7956,17.9622 L3.5666,6.4682 L3.5666,14.1722 C3.5226,14.4952 3.6296,14.8212 3.8566,15.0562 L5.9566,17.6242 L5.9566,17.9622 L-0.0004,17.9622 L-0.0004,17.6242 L2.1006,15.0562 C2.3256,14.8212 2.4256,14.4932 2.3716,14.1722 L2.3716,5.2642 Z"/>
</svg>
