<svg xmlns="http://www.w3.org/2000/svg" width="20" height="20" viewBox="0 0 20 20">
  <path d="M6.8613,0.3896 C6.0563,0.5906 5.2893,0.8566 4.5633,1.1786 C4.0593,1.4016 3.8703,1.9796 4.1483,2.4296 L8.5173,9.4756 C9.0073,10.2666 10.3053,9.9426 10.3053,9.0296 L10.3053,0.8936 C10.3053,0.3736 9.8303,-0.0384 9.2743,0.0026 C8.4723,0.0616 7.6663,0.1896 6.8613,0.3896 M17.9203,9.2746 C17.4263,8.2136 16.6963,7.2976 15.8053,6.5656 C15.3723,6.2096 14.7013,6.2916 14.3783,6.7376 L11.7773,10.3276 C11.2773,11.0176 11.9763,11.9126 12.8363,11.6836 L17.3053,10.4906 C17.8633,10.3416 18.1503,9.7696 17.9203,9.2746 M11.7003,14.4386 L14.1653,18.1116 C14.4723,18.5696 15.1423,18.6696 15.5903,18.3266 C16.5293,17.6046 17.2823,16.7006 17.8003,15.6886 C18.0493,15.2026 17.7813,14.6216 17.2313,14.4546 L12.8093,13.1176 C11.9583,12.8596 11.2263,13.7326 11.7003,14.4386 M5.6013,18.7326 C6.5943,19.3676 7.7313,19.7996 8.9333,19.9876 C9.5053,20.0766 10.0313,19.6776 10.0513,19.1376 L10.2143,14.8096 C10.2453,13.9766 9.1423,13.5626 8.5443,14.1816 L5.4323,17.3996 C5.0463,17.7996 5.1253,18.4266 5.6013,18.7326 M3.7593,9.3866 L7.9393,11.2856 C8.7433,11.6506 8.6193,12.7506 7.7513,12.9526 L3.2393,13.9996 C2.6763,14.1306 2.1213,13.7696 2.0543,13.2326 C1.9123,12.0846 2.0523,10.9516 2.4313,9.9026 C2.6153,9.3926 3.2403,9.1516 3.7593,9.3866"/>
</svg>
