<svg xmlns="http://www.w3.org/2000/svg" width="20" height="20" viewBox="0 0 20 20">
  <path d="M9.9958,0.0029 C4.6058,-0.1251 0.1318,4.1389 0.0028,9.5289 C-0.1012,13.8779 2.6858,17.7709 6.8358,19.0749 C7.0938,19.1759 7.3838,19.0489 7.4848,18.7919 C7.5078,18.7319 7.5198,18.6689 7.5188,18.6049 C7.5188,18.3709 7.5098,17.7559 7.5058,16.9399 C4.7238,17.5299 4.1368,15.6269 4.1368,15.6269 C3.9498,15.0329 3.5558,14.5249 3.0268,14.1959 C2.1178,13.5889 3.0958,13.6019 3.0958,13.6019 C3.7338,13.6849 4.2978,14.0569 4.6268,14.6089 C5.2118,15.6279 6.5058,15.9899 7.5358,15.4229 C7.5828,14.9239 7.8088,14.4589 8.1718,14.1139 C5.9508,13.8669 3.6178,13.0239 3.6178,9.2769 C3.6038,8.3019 3.9738,7.3589 4.6458,6.6519 C4.3408,5.8089 4.3758,4.8799 4.7438,4.0629 C4.7438,4.0629 5.5838,3.7989 7.4938,5.0619 C9.1338,4.6239 10.8598,4.6239 12.5008,5.0619 C14.4098,3.7959 15.2478,4.0629 15.2478,4.0629 C15.6168,4.8789 15.6518,5.8089 15.3468,6.6519 C16.0198,7.3589 16.3898,8.3019 16.3748,9.2769 C16.3748,13.0369 14.0368,13.8649 11.8088,14.1069 C12.2908,14.5819 12.5388,15.2449 12.4888,15.9189 C12.4888,17.2289 12.4758,18.2819 12.4758,18.6049 C12.4718,18.8789 12.6898,19.1069 12.9648,19.1109 C13.0328,19.1119 13.0998,19.0999 13.1638,19.0739 C18.3078,17.4569 21.1658,11.9769 19.5478,6.8329 C18.2418,2.6829 14.3468,-0.1031 9.9958,0.0029"/>
</svg>