<svg xmlns="http://www.w3.org/2000/svg" width="20" height="20" viewBox="0 0 20 20">
  <path d="M19.797,7.9883 C19.664,7.3443 19.468,6.7143 19.212,6.1083 C18.961,5.5133 18.652,4.9453 18.29,4.4103 C15.203,-0.1687 8.988,-1.3777 4.409,1.7093 C3.344,2.4273 2.427,3.3443 1.709,4.4103 C0.977,5.4923 0.465,6.7083 0.202,7.9883 C-0.067,9.3173 -0.067,10.6863 0.202,12.0153 C0.466,13.2953 0.978,14.5103 1.709,15.5933 C2.427,16.6573 3.343,17.5743 4.407,18.2923 C4.943,18.6533 5.512,18.9623 6.107,19.2143 C8.596,20.2613 11.402,20.2613 13.893,19.2143 C14.486,18.9623 15.056,18.6533 15.591,18.2923 C16.655,17.5743 17.572,16.6583 18.29,15.5933 C19.022,14.5103 19.533,13.2953 19.797,12.0153 C20.067,10.6863 20.067,9.3173 19.797,7.9883 L19.797,7.9883 Z M18.537,9.9153 C16.58,9.5223 14.575,9.4273 12.59,9.6353 C12.528,9.4903 12.469,9.3423 12.408,9.1963 C12.226,8.7773 12.039,8.3633 11.84,7.9563 C13.701,7.2803 15.346,6.1123 16.598,4.5773 C17.838,6.0813 18.524,7.9663 18.54,9.9153 L18.537,9.9153 Z M15.641,3.5933 C14.493,5.0443 12.941,6.1203 11.179,6.6833 C10.23,4.9523 9.163,3.2883 7.987,1.7023 C10.693,1.0433 13.552,1.7493 15.641,3.5923 L15.641,3.5933 Z M6.357,2.2793 C7.506,3.8563 8.566,5.4993 9.528,7.1983 C6.954,7.8773 4.305,8.2273 1.643,8.2413 C2.195,5.6263 3.939,3.4193 6.357,2.2793 L6.357,2.2793 Z M1.461,10.0003 C1.461,9.9093 1.465,9.8183 1.468,9.7273 C4.433,9.7393 7.385,9.3293 10.235,8.5103 C10.48,8.9893 10.714,9.4773 10.928,9.9643 C10.816,9.9943 10.703,10.0293 10.592,10.0663 C7.704,11.1013 5.254,13.0903 3.646,15.7023 C2.238,14.1363 1.462,12.1053 1.465,10.0003 L1.461,10.0003 Z M10.005,18.5453 C8.019,18.5483 6.094,17.8543 4.565,16.5873 C4.677,16.6773 4.756,16.7373 4.756,16.7373 C4.756,16.7373 6.393,13.1673 11.458,11.4013 C11.477,11.3943 11.497,11.3893 11.516,11.3843 C12.327,13.4833 12.938,15.6533 13.339,17.8683 C12.284,18.3153 11.151,18.5463 10.005,18.5453 L10.005,18.5453 Z M14.777,17.0823 C14.4,15.0063 13.843,12.9653 13.115,10.9833 C14.896,10.7193 16.712,10.8463 18.438,11.3563 C18.062,13.6893 16.737,15.7623 14.777,17.0833 L14.777,17.0823 Z"/>
</svg>
