<svg xmlns="http://www.w3.org/2000/svg" width="20" height="20" viewBox="0 0 20 20">
  <path d="M13.4384,13.0825 C12.6094,13.0825 11.9374,12.4105 11.9374,11.5805 C11.9374,10.7515 12.6094,10.0795 13.4384,10.0795 C14.2674,10.0795 14.9404,10.7515 14.9404,11.5805 C14.9734,12.4095 14.3284,13.1075 13.5004,13.1415 C13.4744,13.1425 13.4494,13.1435 13.4234,13.1425 L13.4384,13.0825 Z M13.7094,15.6495 C12.6434,16.4525 11.3334,16.8605 10.0004,16.8065 C8.6674,16.8605 7.3564,16.4525 6.2924,15.6495 C6.1494,15.4775 6.1744,15.2215 6.3484,15.0795 C6.4974,14.9565 6.7124,14.9565 6.8624,15.0795 C7.7654,15.7415 8.8664,16.0755 9.9854,16.0245 C11.1054,16.0865 12.2114,15.7635 13.1234,15.1095 C13.2894,14.9475 13.5544,14.9505 13.7164,15.1165 C13.8774,15.2825 13.8754,15.5485 13.7094,15.7095 L13.7094,15.6495 Z M4.9854,11.5205 C4.9854,10.6915 5.6574,10.0195 6.4864,10.0195 C7.3164,10.0195 7.9884,10.6915 7.9884,11.5205 C7.9884,12.3505 7.3164,13.0215 6.4864,13.0215 C5.6574,13.0215 4.9854,12.3505 4.9854,11.5205 L4.9854,11.5205 Z M20.0004,10.0195 C19.9564,8.8095 18.9384,7.8645 17.7294,7.9095 C17.1914,7.9285 16.6794,8.1455 16.2914,8.5185 C14.5834,7.3565 12.5754,6.7155 10.5104,6.6715 L11.4864,1.9865 L14.7004,2.6625 C14.7884,3.4865 15.5284,4.0835 16.3534,3.9945 C17.1774,3.9065 17.7744,3.1655 17.6854,2.3415 C17.5964,1.5175 16.8564,0.9205 16.0324,1.0095 C15.5574,1.0605 15.1344,1.3335 14.8944,1.7465 L11.2164,1.0105 C10.9654,0.9565 10.7164,1.1145 10.6624,1.3655 C10.6624,1.3675 10.6614,1.3695 10.6614,1.3715 L9.5494,6.5815 C7.4594,6.6125 5.4244,7.2545 3.6944,8.4285 C2.8124,7.5985 1.4254,7.6405 0.5954,8.5225 C-0.2336,9.4045 -0.1916,10.7915 0.6894,11.6205 C0.8624,11.7835 1.0614,11.9175 1.2764,12.0165 C1.2604,12.2355 1.2604,12.4575 1.2764,12.6775 C1.2764,16.0405 5.1954,18.7725 10.0304,18.7725 C14.8654,18.7725 18.7834,16.0405 18.7834,12.6775 C18.8004,12.4575 18.8004,12.2355 18.7834,12.0165 C19.5404,11.6405 20.0124,10.8635 20.0004,10.0195 L20.0004,10.0195 Z"/>
</svg>
