<svg xmlns="http://www.w3.org/2000/svg" width="20" height="20" viewBox="0 0 20 20">
  <path d="M9.9949,-0.0001 C4.4749,-0.0001 -0.0001,4.4759 -0.0001,9.9959 C-0.0001,13.9649 2.3489,17.5579 5.9839,19.1509 C5.9409,18.3809 5.9989,17.6099 6.1559,16.8549 C6.3489,16.0439 7.4419,11.4099 7.4419,11.4099 C7.2249,10.9109 7.1169,10.3709 7.1229,9.8269 C7.1229,8.3459 7.9829,7.2399 9.0499,7.2399 C9.7899,7.2289 10.3979,7.8199 10.4089,8.5599 C10.4089,8.6209 10.4059,8.6809 10.3989,8.7409 C10.2059,9.9449 9.9109,11.1299 9.5159,12.2849 C9.3049,13.1109 9.8039,13.9529 10.6309,14.1649 C10.7819,14.2029 10.9379,14.2179 11.0939,14.2099 C12.9879,14.2099 14.2639,11.7779 14.2639,8.8959 C14.2639,6.7059 12.7889,5.0659 10.1039,5.0659 C7.4929,4.9619 5.2909,6.9949 5.1869,9.6059 C5.1839,9.6879 5.1829,9.7699 5.1839,9.8509 C5.1529,10.5639 5.3879,11.2629 5.8429,11.8129 C6.0079,11.9479 6.0659,12.1729 5.9859,12.3709 C5.9389,12.5529 5.8289,12.9989 5.7829,13.1729 C5.7529,13.3609 5.5769,13.4889 5.3899,13.4579 C5.3519,13.4529 5.3159,13.4409 5.2829,13.4229 C3.8859,12.8539 3.2359,11.3249 3.2359,9.6069 C3.2359,6.7679 5.6299,3.3609 10.3789,3.3609 C14.1949,3.3609 16.7079,6.1249 16.7079,9.0859 C16.7079,13.0069 14.5269,15.9369 11.3139,15.9369 C10.3419,15.9619 9.4229,15.4939 8.8719,14.6919 C8.8719,14.6919 8.2919,16.9949 8.1689,17.4389 C7.9369,18.1969 7.5989,18.9169 7.1629,19.5799 C12.4559,21.1479 18.0179,18.1269 19.5859,12.8339 C21.1529,7.5419 18.1339,1.9789 12.8409,0.4119 C11.9169,0.1379 10.9589,-0.0001 9.9949,-0.0001"/>
</svg>
