<svg xmlns="http://www.w3.org/2000/svg" width="20" height="20" viewBox="0 0 20 20">
  <path d="M18.281,11.4383 L16.132,10.0003 L18.281,8.5623 L18.281,11.4383 Z M10.859,17.5343 L10.859,13.5263 L14.586,11.0343 L17.594,13.0453 L10.859,17.5343 Z M10,12.0333 L6.961,10.0003 L10,7.9663 L13.04,10.0003 L10,12.0333 Z M9.141,17.5343 L2.407,13.0453 L5.415,11.0343 L9.141,13.5263 L9.141,17.5343 Z M1.719,8.5623 L3.869,10.0003 L1.719,11.4383 L1.719,8.5623 Z M9.141,2.4653 L9.141,6.4743 L5.415,8.9663 L2.407,6.9543 L9.141,2.4653 Z M10.859,2.4653 L17.594,6.9543 L14.586,8.9663 L10.859,6.4743 L10.859,2.4653 Z M19.985,6.8033 C19.944,6.5803 19.812,6.3603 19.617,6.2383 L10.477,0.1443 C10.188,-0.0477 9.812,-0.0477 9.523,0.1443 L0.383,6.2383 C0.148,6.3943 0,6.6713 0,6.9533 L0,13.0463 C0,13.3283 0.148,13.6063 0.383,13.7613 L9.523,19.8553 C9.668,19.9523 9.834,20.0003 10,20.0003 C10.167,20.0003 10.333,19.9523 10.477,19.8553 L19.617,13.7613 C19.854,13.6133 20,13.3233 20,13.0463 L20,6.9533 C20.001,6.9023 19.996,6.8533 19.985,6.8033 L19.985,6.8033 Z"/>
</svg>
