<svg xmlns="http://www.w3.org/2000/svg" width="20" height="20" viewBox="0 0 20 20">
  <path d="M14.785 11.957c-.246-.135-1.455-.783-1.683-.873-.226-.091-.39-.14-.568.104-.177.242-.679.784-.83.944-.152.162-.3.177-.546.043-.246-.135-1.043-.428-1.969-1.31-.719-.687-1.192-1.52-1.329-1.774-.137-.255 0-.384.13-.503.116-.107.261-.281.392-.421.13-.142.176-.244.266-.406.09-.163.054-.31-.005-.437-.058-.125-.512-1.369-.703-1.875-.19-.505-.4-.43-.548-.436-.146-.005-.312-.032-.479-.037a.925.925 0 0 0-.68.285c-.24.24-.909.819-.956 2.042-.046 1.224.807 2.44.926 2.61.12.17 1.63 2.822 4.14 3.913 2.51 1.091 2.523.758 2.984.734.461-.024 1.505-.546 1.736-1.12.231-.572.25-1.07.191-1.175-.059-.107-.223-.176-.469-.309m-4.604 5.896a8.18 8.18 0 0 1-4.497-1.34l-3.14.997 1.02-3.011a8.025 8.025 0 0 1-1.556-4.755c0-4.474 3.667-8.112 8.173-8.112 4.507 0 8.173 3.638 8.173 8.111 0 4.472-3.666 8.11-8.173 8.11m0-17.852C4.76 0 .363 4.362.363 9.742c0 1.841.515 3.563 1.41 5.03L0 20l5.435-1.727a9.838 9.838 0 0 0 4.746 1.212c5.423 0 9.82-4.362 9.82-9.742 0-5.381-4.397-9.744-9.82-9.744"/>
</svg>