<svg xmlns="http://www.w3.org/2000/svg" width="20" height="20" viewBox="0 0 20 20">
  <path d="M10.1260439,19 C10.0750453,19 10.0240468,18.9980823 9.9730482,18.9961645 C9.9410491,18.9980823 9.90705005,19 9.87405098,19 C8.68908421,19 7.92810555,18.4841253 7.19312617,17.9855103 C6.68514041,17.6412742 6.20615385,17.3171745 5.64116969,17.2260814 C5.3661774,17.182932 5.09118511,17.1608779 4.82719252,17.1608779 C4.34920592,17.1608779 3.9722165,17.2308758 3.69722421,17.282655 C3.53022889,17.3142979 3.38623293,17.3421053 3.27723599,17.3421053 C3.16223921,17.3421053 3.03824269,17.3171745 2.9842442,17.1417004 C2.93824549,16.9873215 2.90424645,16.8396548 2.87124737,16.6967824 C2.78724973,16.3276156 2.72825138,16.1013211 2.56625593,16.0763904 C0.687308622,15.7983166 0.149323709,15.419561 0.0293270747,15.1491583 C0.0123275514,15.1108033 0.00232783188,15.0724483 0.000327887969,15.0340933 C-0.00567194377,14.9314937 0.0713258968,14.8394417 0.177322924,14.8231408 C3.0662419,14.3667164 4.36120559,11.5361176 4.41520407,11.4162583 C4.41720402,11.4124228 4.41820399,11.4095461 4.42020393,11.4057106 C4.59719897,11.0624334 4.63119802,10.7642233 4.52320104,10.5197102 C4.3252066,10.0709567 3.67822474,9.87438739 3.25123672,9.74493927 C3.14623966,9.71233752 3.04624247,9.6826124 2.96824465,9.65288728 C2.1142686,9.32878756 2.04327059,8.99701683 2.07726964,8.82825485 C2.13426804,8.5396335 2.53625677,8.33826976 2.86124765,8.33826976 C2.95024516,8.33826976 3.02924294,8.35265289 3.09524109,8.38237801 C3.47923032,8.5549755 3.82522062,8.64223311 4.12421223,8.64223311 C4.53720065,8.64223311 4.7171956,8.47634775 4.73919499,8.45429363 C4.72919527,8.26731302 4.71619563,8.07170254 4.70219602,7.86937993 C4.61619844,6.55955679 4.51020141,4.93234605 4.94218929,4.00319625 C6.23715298,1.21958236 8.98307597,1.00287662 9.79405322,1.00287662 C9.81405266,1.00287662 10.1490433,1 10.1490433,1 L10.1970419,1 C11.0100191,1 13.7619419,1.21574686 15.0579056,4.0012785 C15.4898935,4.93138717 15.3828965,6.55955679 15.2968989,7.86842105 L15.292899,7.92499467 C15.2818993,8.10813978 15.2698997,8.28457277 15.2598999,8.45429363 C15.2808993,8.47347113 15.4468947,8.62784999 15.8208842,8.64127424 L15.8208842,8.64127424 C16.1058762,8.63072661 16.432867,8.54442787 16.791857,8.38237801 C16.896854,8.33539314 17.0128508,8.32580439 17.0928485,8.32580439 C17.2138451,8.32580439 17.3368417,8.34881739 17.4388388,8.38909013 L17.4458386,8.39196676 C17.7358305,8.489772 17.9258252,8.68442361 17.9298251,8.88866397 C17.9338249,9.08043895 17.7808292,9.3690603 17.0318502,9.65288728 C16.9538524,9.68165353 16.8548552,9.71233752 16.7498581,9.74493927 C16.3208702,9.87438739 15.6748883,10.0709567 15.4768938,10.5187513 C15.3678969,10.7632644 15.4028959,11.0624334 15.579891,11.4057106 C15.5808909,11.4085873 15.5828909,11.4124228 15.5838908,11.4162583 C15.6378893,11.5361176 16.932853,14.3657575 19.822772,14.8231408 C19.928769,14.8394417 20.0047669,14.9305348 19.999767,15.0340933 C19.9967671,15.0724483 19.9867674,15.1117622 19.9697678,15.1501172 C19.8507712,15.4176433 19.3137862,15.7963989 17.433839,16.0754315 C17.2798433,16.0984445 17.219845,16.2902195 17.1288475,16.6919881 C17.0958484,16.8386959 17.0618494,16.9825272 17.0148507,17.1340294 C16.9748518,17.2644364 16.8898542,17.3267633 16.7468582,17.3267633 L16.7228589,17.3267633 C16.6238617,17.3267633 16.4818657,17.3085446 16.3018707,17.274984 C15.9838796,17.2164926 15.6268896,17.1608779 15.1729024,17.1608779 C14.9079098,17.1608779 14.6339175,17.182932 14.3579252,17.2260814 C13.793941,17.3171745 13.3149545,17.6412742 12.8089687,17.9845515 C12.0719893,18.4841253 11.3120107,19 10.1260439,19"/>
</svg>
