<svg xmlns="http://www.w3.org/2000/svg" width="20" height="20" viewBox="0 0 20 20">
  <path d="M0.516,19.6389 L4.412,19.6389 L4.412,7.2959 L0.516,7.2959 L0.516,19.6389 Z M2.365,5.7519 L2.337,5.7519 C1.152,5.8469 0.114,4.9629 0.019,3.7769 C0.014,3.7219 0.012,3.6669 0.012,3.6119 C-0.118,2.3069 0.834,1.1429 2.14,1.0119 C3.446,0.8809 4.61,1.8339 4.74,3.1399 C4.87,4.4459 3.918,5.6099 2.612,5.7399 C2.53,5.7489 2.447,5.7519 2.365,5.7519 L2.365,5.7519 Z M20,19.6399 L15.583,19.6399 L15.583,13.2519 C15.583,11.5799 14.891,10.4359 13.372,10.4359 C12.418,10.4359 11.569,11.0439 11.262,11.9479 C11.172,12.2759 11.14,12.6179 11.172,12.9569 L11.172,19.6399 L6.791,19.6399 C6.791,19.6399 6.847,8.3249 6.791,7.2959 L11.167,7.2959 L11.167,9.2329 C11.426,8.3869 12.824,7.1769 15.055,7.1769 C17.824,7.1769 20,8.9529 20,12.7759 L20,19.6399 Z"/>
</svg>
