<svg xmlns="http://www.w3.org/2000/svg" width="20" height="20"><path d="M4.25 12.625c0 1.125-1 2.125-2.125 2.125S0 13.75 0 12.625 1 10.5 2.125 10.5H4.25v2.125Zm1 0c0-1.125 1-2.125 2.125-2.125s2.125 1 2.125 2.125v5.25C9.5 19 8.5 20 7.375 20S5.25 19 5.25 17.875v-5.25ZM7.375 4.25c-1.125 0-2.125-1-2.125-2.125S6.25 0 7.375 0 9.5 1 9.5 2.125V4.25H7.375Zm0 1c1.125 0 2.125 1 2.125 2.125S8.5 9.5 7.375 9.5h-5.25C1 9.5 0 8.5 0 7.375S1 5.25 2.125 5.25h5.25Zm8.375 2.125c0-1.125 1-2.125 2.125-2.125S20 6.25 20 7.375 19 9.5 17.875 9.5H15.75V7.375Zm-1 0c0 1.125-1 2.125-2.125 2.125S10.5 8.5 10.5 7.375v-5.25C10.5 1 11.5 0 12.625 0s2.125 1 2.125 2.125v5.25Zm-2.125 8.375c1.125 0 2.125 1 2.125 2.125S13.75 20 12.625 20 10.5 19 10.5 17.875V15.75h2.125Zm0-1c-1.125 0-2.125-1-2.125-2.125s1-2.125 2.125-2.125h5.25C19 10.5 20 11.5 20 12.625s-1 2.125-2.125 2.125h-5.25Z"/></svg>