<svg xmlns="http://www.w3.org/2000/svg" width="20" height="20" viewBox="0 0 20 20">
  <path d="M19.9925,5.1568 C19.9055,7.1858 18.5465,9.9608 15.9165,13.4798 C13.1975,17.1598 10.8945,18.9998 9.0105,18.9998 C7.8455,18.9998 6.8595,17.8788 6.0535,15.6358 C5.5135,13.5758 4.9745,11.5168 4.4385,9.4618 C3.8385,7.2158 3.1955,6.0918 2.5095,6.0928 C1.9385,6.3398 1.4095,6.6718 0.9405,7.0768 L-0.0005,5.8158 C0.9855,4.9158 1.9575,4.0118 2.9155,3.1068 C4.2285,1.9218 5.2145,1.2978 5.8735,1.2348 C7.4265,1.0768 8.3835,2.1828 8.7445,4.5538 C9.1295,7.1118 9.3975,8.7018 9.5485,9.3258 C9.9985,11.4458 10.4915,12.5058 11.0275,12.5038 C11.4455,12.5038 12.0735,11.8188 12.9115,10.4488 C13.5725,9.5078 14.0305,8.4398 14.2555,7.3148 C14.3755,6.1288 13.9275,5.5398 12.9115,5.5398 C12.4005,5.5448 11.8965,5.6568 11.4315,5.8658 C12.4195,2.5298 14.3035,0.9088 17.0825,1.0038 C19.1415,1.0638 20.1105,2.4498 19.9895,5.1628"/>
</svg>
