<svg xmlns="http://www.w3.org/2000/svg" width="20" height="20" viewBox="0 0 20 20">
  <path d="M13.7412,8.2967 C14.3582,6.6297 14.8392,5.2547 15.1842,4.1687 C15.5292,3.0837 15.7022,2.4177 15.7022,2.1707 C15.7022,1.9047 15.6442,1.6987 15.5292,1.5517 C15.4142,1.4057 15.2562,1.3327 15.0532,1.3327 C14.7962,1.3327 14.5332,1.5457 14.2662,1.9707 C13.9992,2.3967 13.7052,3.0817 13.3832,4.0247 L12.0022,7.9947 L13.7412,8.2967 Z M11.9052,11.9917 C11.5102,11.9737 11.1342,11.9327 10.7802,11.8677 C10.4262,11.8047 10.0872,11.7127 9.7652,11.5937 C9.9122,11.8867 10.0432,12.1797 10.1582,12.4727 C10.2742,12.7657 10.3682,13.0547 10.4422,13.3387 C10.6622,13.0637 10.8952,12.8137 11.1382,12.5887 C11.3832,12.3647 11.6382,12.1657 11.9052,11.9917 L11.9052,11.9917 Z M10.3452,7.8297 L8.8542,3.5437 C8.4672,2.4547 8.1682,1.7427 7.9562,1.4077 C7.7442,1.0737 7.5142,0.9067 7.2662,0.9067 C7.0732,0.9067 6.9162,0.9797 6.7972,1.1267 C6.6772,1.2727 6.6172,1.4697 6.6172,1.7167 C6.6172,2.1387 6.7782,2.8707 7.1002,3.9147 C7.4232,4.9587 7.9062,6.3277 8.5502,8.0217 C8.6052,7.9217 8.6832,7.8507 8.7852,7.8087 C8.8862,7.7677 9.0242,7.7477 9.1992,7.7477 C9.2542,7.7477 9.3652,7.7527 9.5312,7.7607 C9.6962,7.7707 9.9682,7.7937 10.3452,7.8297 L10.3452,7.8297 Z M8.9922,14.4637 C9.1482,14.4637 9.2912,14.3937 9.4202,14.2517 C9.5492,14.1097 9.6132,13.9567 9.6132,13.7917 C9.6132,13.6177 9.4872,13.2127 9.2342,12.5757 C8.9802,11.9397 8.6652,11.3147 8.2882,10.7007 C8.0122,10.2427 7.7402,9.8977 7.4732,9.6637 C7.2062,9.4297 6.9532,9.3137 6.7142,9.3137 C6.5202,9.3137 6.3062,9.4347 6.0722,9.6767 C5.8372,9.9197 5.7202,10.1467 5.7202,10.3577 C5.7202,10.5767 5.8352,10.9067 6.0652,11.3457 C6.2952,11.7857 6.6032,12.2527 6.9902,12.7477 C7.3952,13.2877 7.7772,13.7087 8.1362,14.0107 C8.4952,14.3137 8.7802,14.4637 8.9922,14.4637 L8.9922,14.4637 Z M4.8502,14.1347 C4.9792,14.2907 5.1582,14.5197 5.3882,14.8217 C5.9962,15.6547 6.5572,16.0717 7.0732,16.0717 C7.2472,16.0717 7.4042,16.0167 7.5422,15.9067 C7.6802,15.7967 7.7492,15.6827 7.7492,15.5637 C7.7492,15.4257 7.6572,15.1967 7.4732,14.8767 C7.2892,14.5557 7.0362,14.1947 6.7142,13.7917 C6.3452,13.3247 6.0392,12.9837 5.7962,12.7677 C5.5522,12.5527 5.3562,12.4447 5.2092,12.4447 C4.8872,12.4447 4.5902,12.6167 4.3182,12.9607 C4.0472,13.3037 3.9112,13.7087 3.9112,14.1757 C3.9112,14.5517 4.0052,14.9707 4.1942,15.4327 C4.3832,15.8957 4.6572,16.3597 5.0152,16.8267 C5.5582,17.5507 6.2332,18.1067 7.0382,18.4957 C7.8442,18.8857 8.7342,19.0797 9.7102,19.0797 C11.5052,19.0797 13.0082,18.4137 14.2182,17.0817 C15.4282,15.7487 16.0332,14.0797 16.0332,12.0737 C16.0332,11.4607 15.9872,10.9737 15.8952,10.6107 C15.8042,10.2497 15.6512,9.9857 15.4392,9.8217 C15.0622,9.5097 14.3282,9.2307 13.2372,8.9837 C12.1462,8.7357 11.0082,8.6127 9.8202,8.6127 C9.4892,8.6127 9.2542,8.6677 9.1162,8.7777 C8.9782,8.8877 8.9092,9.0747 8.9092,9.3407 C8.9092,9.9637 9.2592,10.4147 9.9582,10.6937 C10.6582,10.9737 11.7902,11.1127 13.3552,11.1127 L13.9212,11.1127 C14.0502,11.1127 14.1532,11.1607 14.2312,11.2567 C14.3092,11.3527 14.3632,11.4977 14.3902,11.6897 C14.2332,11.8367 13.9122,12.0037 13.4242,12.1917 C12.9362,12.3787 12.5632,12.5647 12.3052,12.7477 C11.7542,13.1507 11.3092,13.6287 10.9732,14.1827 C10.6372,14.7367 10.4692,15.2607 10.4692,15.7557 C10.4692,16.0577 10.5402,16.4217 10.6832,16.8477 C10.8262,17.2737 10.8972,17.5367 10.8972,17.6377 L10.8972,17.7337 L10.8692,17.8577 C10.4652,17.8297 10.1452,17.5937 9.9102,17.1497 C9.6752,16.7057 9.5582,16.1127 9.5582,15.3707 L9.5582,15.2477 C9.4842,15.3117 9.4132,15.3577 9.3442,15.3847 C9.2752,15.4127 9.1992,15.4257 9.1162,15.4257 C9.0332,15.4257 8.9552,15.4197 8.8822,15.4047 C8.8072,15.3917 8.7252,15.3707 8.6332,15.3437 C8.6602,15.4447 8.6812,15.5427 8.6952,15.6387 C8.7092,15.7347 8.7162,15.8107 8.7162,15.8657 C8.7162,16.2047 8.5822,16.4957 8.3152,16.7377 C8.0482,16.9807 7.7312,17.1017 7.3632,17.1017 C6.7832,17.1017 6.1942,16.8197 5.5952,16.2567 C4.9972,15.6937 4.6982,15.1427 4.6982,14.6017 C4.6982,14.5007 4.7102,14.4117 4.7332,14.3337 C4.7552,14.2557 4.7952,14.1897 4.8502,14.1347 L4.8502,14.1347 Z M14.7352,8.5297 C15.5642,8.6867 16.1482,9.0337 16.4892,9.5737 C16.8292,10.1147 17.0002,10.9667 17.0002,12.1297 C17.0002,14.4367 16.3032,16.3257 14.9082,17.7957 C13.5132,19.2647 11.7302,19.9997 9.5582,19.9997 C8.7022,19.9997 7.8712,19.8467 7.0662,19.5397 C6.2602,19.2337 5.5682,18.8047 4.9882,18.2557 C4.3252,17.6507 3.8282,17.0127 3.4972,16.3397 C3.1652,15.6667 3.0002,14.9777 3.0002,14.2727 C3.0002,13.4847 3.1702,12.8757 3.5112,12.4447 C3.8512,12.0147 4.3892,11.7217 5.1262,11.5667 C4.9882,11.2457 4.8872,10.9757 4.8222,10.7557 C4.7582,10.5357 4.7252,10.3667 4.7252,10.2477 C4.7252,9.8357 4.9442,9.4147 5.3822,8.9837 C5.8192,8.5527 6.2312,8.3377 6.6172,8.3377 C6.7832,8.3377 6.9572,8.3677 7.1422,8.4267 C7.3262,8.4867 7.5372,8.5857 7.7772,8.7227 C7.0682,6.7267 6.5532,5.1857 6.2312,4.1007 C5.9082,3.0147 5.7472,2.2667 5.7472,1.8547 C5.7472,1.2867 5.8942,0.8357 6.1892,0.5017 C6.4842,0.1677 6.8842,-0.0003 7.3902,-0.0003 C8.2552,-0.0003 9.3512,1.9227 10.6762,5.7697 C10.9062,6.4287 11.0812,6.9367 11.2012,7.2947 C11.3032,7.0097 11.4452,6.6077 11.6292,6.0857 C12.9552,2.2757 14.0952,0.3707 15.0532,0.3707 C15.5222,0.3707 15.8972,0.5287 16.1792,0.8447 C16.4592,1.1607 16.5992,1.5847 16.5992,2.1157 C16.5992,2.5187 16.4452,3.2557 16.1372,4.3267 C15.8282,5.3987 15.3612,6.7997 14.7352,8.5297 L14.7352,8.5297 Z"/>
</svg>
