<svg width="20" height="20" viewBox="0 0 20 20" xmlns="http://www.w3.org/2000/svg"><path d="M16.918 3.742a16.52 16.52 0 0 0-4.068-1.24.06.06 0 0 0-.065.03 11.12 11.12 0 0 0-.506 1.022 15.401 15.401 0 0 0-4.569 0 9.946 9.946 0 0 0-.515-1.022.059.059 0 0 0-.065-.03A16.586 16.586 0 0 0 3.046 3.75a.045.045 0 0 0-.011.014C.445 7.573-.265 11.287.082 14.957a.074.074 0 0 0 .028.047 16.708 16.708 0 0 0 4.988 2.493.065.065 0 0 0 .07-.022c.388-.52.73-1.07 1.025-1.645a.06.06 0 0 0 .003-.05.061.061 0 0 0-.037-.036 11.399 11.399 0 0 1-1.56-.731.063.063 0 0 1 0-.106l.31-.238a.057.057 0 0 1 .065 0 11.983 11.983 0 0 0 10.043 0 .06.06 0 0 1 .065 0c.101.083.206.164.31.241a.064.064 0 0 1 .028.053.063.063 0 0 1-.028.052c-.498.286-1.02.53-1.56.729a.067.067 0 0 0-.035.037.065.065 0 0 0 .002.051c.3.569.642 1.115 1.021 1.635a.065.065 0 0 0 .07.022 16.64 16.64 0 0 0 4.997-2.493.055.055 0 0 0 .026-.047 16.305 16.305 0 0 0-2.978-11.196.045.045 0 0 0-.017-.01ZM6.68 12.725c-.985 0-1.796-.892-1.796-1.983 0-1.092.794-1.986 1.796-1.986s1.81.897 1.796 1.983c-.014 1.085-.797 1.986-1.796 1.986Zm6.64 0c-.985 0-1.796-.892-1.796-1.983 0-1.092.794-1.986 1.796-1.986s1.81.897 1.796 1.983c-.014 1.085-.788 1.986-1.796 1.986Z"/></svg>