<svg xmlns="http://www.w3.org/2000/svg" width="20" height="20" viewBox="0 0 20 20">
  <path d="M10,0 C4.477,0 0,4.477 0,10 C0,15.522 4.477,20 10,20 C15.522,20 20,15.522 20,10 C19.984,4.484 15.517,0.016 10,0 M14.6,14.454 C14.438,14.74 14.075,14.841 13.79,14.679 C13.776,14.672 13.763,14.663 13.75,14.654 C11.4,13.2 8.45,12.904 4.95,13.704 C4.619,13.787 4.283,13.586 4.2,13.255 C4.117,12.923 4.319,12.587 4.65,12.505 C8.45,11.654 11.75,12.005 14.35,13.604 C14.647,13.749 14.771,14.107 14.627,14.405 C14.619,14.422 14.609,14.438 14.6,14.454 M15.805,11.7 C15.591,12.058 15.128,12.174 14.771,11.96 C14.766,11.957 14.76,11.953 14.755,11.95 C11.725,10.247 8.138,9.833 4.8,10.8 C4.399,10.926 3.973,10.703 3.848,10.303 C3.722,9.902 3.945,9.476 4.345,9.35 C8.126,8.269 12.183,8.755 15.6,10.7 C15.929,10.909 16.026,11.346 15.816,11.675 C15.812,11.684 15.806,11.691 15.8,11.7 M15.9,8.9 C12.7,7 7.35,6.8 4.3,7.75 C3.823,7.92 3.298,7.671 3.128,7.194 C2.958,6.717 3.206,6.192 3.683,6.022 C3.707,6.014 3.73,6.006 3.754,6 C7.305,4.95 13.154,5.15 16.854,7.35 C17.304,7.617 17.459,8.193 17.204,8.65 C16.886,9.031 16.342,9.136 15.904,8.9"/>
</svg>
