<svg xmlns="http://www.w3.org/2000/svg" width="20" height="20" viewBox="0 0 20 20">
  <path d="M0,13.23 C0,13.482 0.09,13.672 0.27,13.801 C0.45,13.93 0.642,13.976 0.847,13.938 C1.039,13.9 1.174,13.831 1.252,13.73 C1.329,13.629 1.368,13.463 1.368,13.23 L1.368,10.494 C1.368,10.298 1.301,10.133 1.168,9.998 C1.035,9.863 0.872,9.794 0.679,9.794 C0.493,9.794 0.333,9.863 0.2,9.998 C0.067,10.133 0,10.298 0,10.494 L0,13.23 Z M2.141,14.401 C2.141,14.584 2.204,14.72 2.331,14.811 C2.458,14.903 2.621,14.948 2.82,14.948 C3.024,14.948 3.19,14.903 3.318,14.811 C3.445,14.72 3.509,14.584 3.509,14.401 L3.509,8.021 C3.509,7.832 3.442,7.669 3.309,7.534 C3.175,7.399 3.012,7.332 2.82,7.332 C2.634,7.332 2.474,7.399 2.341,7.534 C2.207,7.669 2.141,7.832 2.141,8.021 L2.141,14.401 Z M4.271,14.703 C4.271,14.885 4.337,15.022 4.467,15.113 C4.598,15.205 4.765,15.25 4.97,15.25 C5.168,15.25 5.331,15.205 5.458,15.113 C5.585,15.022 5.649,14.885 5.649,14.703 L5.649,8.879 C5.649,8.684 5.583,8.518 5.449,8.379 C5.315,8.241 5.156,8.171 4.97,8.171 C4.777,8.171 4.613,8.241 4.477,8.379 C4.34,8.518 4.271,8.684 4.271,8.879 L4.271,14.703 Z M6.412,14.731 C6.412,15.077 6.642,15.25 7.101,15.25 C7.56,15.25 7.79,15.077 7.79,14.731 L7.79,5.293 C7.79,4.764 7.62,4.404 7.311,4.365 C7.102,4.337 6.909,4.338 6.71,4.508 C6.512,4.678 6.412,4.985 6.412,5.293 L6.412,14.731 Z M8.59,15.004 L8.59,4.736 C8.59,4.409 8.686,4.214 8.878,4.151 C9.294,4.05 9.707,4 10.117,4 C11.066,4 11.95,4.227 12.769,4.68 C13.587,5.132 14.25,5.751 14.755,6.534 C15.261,7.317 15.554,8.181 15.635,9.125 C16.013,8.961 16.417,8.879 16.845,8.879 C17.713,8.879 18.457,9.191 19.074,9.814 C19.691,10.437 20,11.185 20,12.06 C20,12.941 19.691,13.693 19.074,14.316 C18.457,14.939 17.716,15.251 16.854,15.251 L8.758,15.241 C8.702,15.222 8.66,15.187 8.632,15.137 C8.604,15.086 8.59,15.042 8.59,15.004 L8.59,15.004 Z"/>
</svg>
