<svg xmlns="http://www.w3.org/2000/svg" width="20" height="20" viewBox="0 0 20 20">
  <path d="M6.29 18.254c7.547 0 11.675-6.253 11.675-11.675 0-.178-.004-.354-.012-.53A8.339 8.339 0 0 0 20 3.924a8.165 8.165 0 0 1-2.356.646 4.12 4.12 0 0 0 1.804-2.27 8.198 8.198 0 0 1-2.606.996A4.104 4.104 0 0 0 9.85 7.039a11.652 11.652 0 0 1-8.458-4.287 4.101 4.101 0 0 0 1.27 5.477 4.058 4.058 0 0 1-1.858-.513l-.001.052a4.104 4.104 0 0 0 3.292 4.023 4.107 4.107 0 0 1-1.853.07 4.107 4.107 0 0 0 3.833 2.85 8.233 8.233 0 0 1-5.096 1.757A8.33 8.33 0 0 1 0 16.411a11.614 11.614 0 0 0 6.29 1.843"/>
</svg>