<svg xmlns="http://www.w3.org/2000/svg" width="20" height="20" viewBox="0 0 20 20">
  <path d="M8,13 L8,7 L13,10 L8,13 Z M19.582,5.186 C19.353,4.326 18.675,3.648 17.813,3.418 C16.254,3 10,3 10,3 C10,3 3.746,3 2.186,3.418 C1.326,3.648 0.648,4.326 0.418,5.186 C0,6.746 0,10 0,10 C0,10 0,13.254 0.418,14.813 C0.648,15.675 1.326,16.353 2.186,16.582 C3.746,17 10,17 10,17 C10,17 16.254,17 17.813,16.582 C18.675,16.353 19.353,15.675 19.582,14.813 C20,13.254 20,10 20,10 C20,10 20,6.746 19.582,5.186 L19.582,5.186 Z"/>
</svg>
