<svg width="20" height="20" viewBox="0 0 20 20" xmlns="http://www.w3.org/2000/svg">
<path fill-rule="evenodd" clip-rule="evenodd" d="M2.89864 18H17.1014C18.4183 18 19.2633 16.6003 18.65 15.4349L11.5486 1.94236C10.8925 0.69577 9.10749 0.695766 8.45139 1.94236L1.35003 15.4349C0.736692 16.6003 1.58174 18 2.89864 18ZM9 6C9 5.44772 9.44771 5 10 5C10.5523 5 11 5.44772 11 6V11C11 11.5523 10.5523 12 10 12C9.44771 12 9 11.5523 9 11V6ZM11.25 14.75C11.25 15.4404 10.6904 16 10 16C9.30964 16 8.75 15.4404 8.75 14.75C8.75 14.0596 9.30964 13.5 10 13.5C10.6904 13.5 11.25 14.0596 11.25 14.75Z" />
</svg>
